<svg version="1.1" xmlns="http://www.w3.org/2000/svg" width="32" height="32" viewBox="0 0 32 32">
<path d="M9.121 0.878c-0.573-0.574-1.341-0.878-2.122-0.878-0.386 0-0.775 0.074-1.146 0.228-1.122 0.464-1.853 1.558-1.853 2.772l-0.001 13.757-3.12 3.122c-1.172 1.17-1.172 3.070 0 4.242l7 7c0.586 0.586 1.353 0.879 2.121 0.879s1.535-0.293 2.121-0.879l3.121-3.121h13.756c1.215 0 2.309-0.73 2.771-1.852 0.465-1.121 0.209-2.412-0.65-3.27zM13.828 26.586l-3.121 3.121c-0.255 0.254-0.553 0.293-0.707 0.293s-0.452-0.039-0.707-0.293l-7-7c-0.255-0.256-0.293-0.553-0.293-0.707s0.038-0.453 0.293-0.707l3.12-3.121c0.009-0.010 0.012-0.021 0.021-0.031l8.425 8.426c-0.009 0.007-0.022 0.009-0.031 0.019zM15.242 26c-0.155 0-0.299 0.055-0.447 0.088l-8.885-8.885c0.034-0.148 0.089-0.292 0.089-0.446l0.001-12.046 21.287 21.289zM29.922 25.383c-0.154 0.375-0.518 0.617-0.924 0.617h-0.297l-22.701-22.703v-0.297c0-0.406 0.242-0.769 0.617-0.924 0.123-0.051 0.251-0.076 0.382-0.076 0.268 0 0.519 0.104 0.707 0.292l21.999 22.001c0.287 0.287 0.373 0.715 0.217 1.090z"></path>
</svg>
