<?xml version="1.0" encoding="utf-8" ?>
<svg xmlns="http://www.w3.org/2000/svg" xmlns:xlink="http://www.w3.org/1999/xlink" width="3140" height="2160">
	<path fill="#FAF9FD" d="M0 0L3140 0L3140 1784.66L3140 2112.2L3140 2160L0 2160L0 2054.16L0 1793.74L0 0Z"/>
	<path fill="#E2EFF0" d="M0 1793.74Q63.6538 1772.98 128.813 1754.57C292.29 1708.47 523.962 1652.74 702.588 1682.2C806.639 1699.37 892.531 1745.35 976.519 1788.6Q1045.16 1824.6 1116.09 1858.44Q1133.66 1866.84 1151.54 1874.92Q1169.42 1883 1187.59 1890.77Q1205.76 1898.54 1224.21 1905.98Q1242.67 1913.43 1261.39 1920.55Q1280.11 1927.67 1299.1 1934.45Q1318.08 1941.24 1337.31 1947.69Q1356.54 1954.15 1376 1960.26Q1395.46 1966.37 1415.14 1972.14C1525.14 2003.75 1653.84 2031.54 1774.54 2024.29C1805.53 2022.43 1834.98 2016.34 1864.32 2009.57C2020.09 1973.62 2144.98 1901.7 2279.76 1840.04C2351.09 1807.41 2423.69 1777.57 2503.16 1755.22C2665.19 1709.65 2832.89 1707.38 2998.49 1745.35C3046.56 1756.37 3093.32 1771.17 3140 1784.66L3140 2112.2L3140 2160L0 2160L0 2054.16L0 1793.74Z"/>
	<path fill="#FC8C96" d="M0 2054.16C62.4049 2053.4 124.565 2050.21 186.287 2058.66C302.189 2074.54 395.985 2113 518.424 2113.62C637.324 2114.22 751.692 2096.69 869.005 2087.48C916.451 2083.76 964.443 2084.11 1012.09 2082.62C1063.59 2081.01 1115.14 2077.91 1166.64 2076.99C1222.01 2076 1277.55 2078.6 1332.88 2079.89C1386.05 2081.13 1439.39 2080.51 1492.14 2086.04C1533.68 2090.4 1574.01 2098.89 1615.11 2104.7C1671.59 2112.7 1745.42 2117.47 1803.16 2117.91C1872.56 2118.45 1940.43 2113.39 2009.43 2108.98C2062.27 2105.6 2115.18 2103.17 2167.81 2098.38C2213.73 2094.2 2259.44 2088.32 2305.47 2084.87C2368.22 2080.17 2431.95 2078.61 2495.03 2076.94C2542.41 2075.68 2575.14 2082.52 2620.07 2090.4C2659.21 2097.27 2699.55 2104.13 2739.86 2106.39C2780.8 2108.68 2823.29 2107.13 2864.42 2107.11C2956.58 2107.05 3048.07 2106.45 3140 2112.2L3140 2160L0 2160L0 2054.16Z"/>
</svg>
